<svg xmlns="http://www.w3.org/2000/svg" viewBox="0 0 64 64" width="64" height="64">
  <defs>
    <radialGradient id="g_siamese" cx="0.42" cy="0.34" r="0.75">
      <stop offset="0" stop-color="rgb(255,253,226)"/>
      <stop offset="0.62" stop-color="#EBDBC0"/>
      <stop offset="1" stop-color="#CDB58E"/>
    </radialGradient></defs>
  <!-- ears -->
  <path d="M13 27 L16.5 6.5 L32 20 Z" fill="#7C5A3C" stroke="#9C7C55" stroke-width="2.4" stroke-linejoin="round"/>
  <path d="M51 27 L47.5 6.5 L32 20 Z" fill="#7C5A3C" stroke="#9C7C55" stroke-width="2.4" stroke-linejoin="round"/>
  <path d="M17.5 22 L19.5 12 L28 20 Z" fill="#C98F86"/>
  <path d="M46.5 22 L44.5 12 L36 20 Z" fill="#C98F86"/>
  <!-- head -->
  <circle cx="32" cy="37" r="20.5" fill="url(#g_siamese)" stroke="#9C7C55" stroke-width="2.4"/>
  <ellipse cx="32" cy="44" rx="13" ry="10" fill="#C9A87E" opacity="0.9"/>
  
  <!-- blush -->
  <ellipse cx="18.5" cy="43.5" rx="4.2" ry="2.6" fill="#FF7FB0" opacity="0.45"/>
  <ellipse cx="45.5" cy="43.5" rx="4.2" ry="2.6" fill="#FF7FB0" opacity="0.45"/>
  <!-- whiskers -->
  <g stroke="#9C7C55" stroke-width="1.3" stroke-linecap="round" opacity="0.5">
    <path d="M16 39 L5 37"/>
    <path d="M16 42.5 L4.5 43"/>
    <path d="M48 39 L59 37"/>
    <path d="M48 42.5 L59.5 43"/>
  </g>
  <!-- eyes -->
  
    <ellipse cx="23.5" cy="37.5" rx="5.2" ry="6.4" fill="#4FA6DE"/>
    <ellipse cx="23.5" cy="38.2" rx="2.2" ry="3.4" fill="#1E5E86"/>
    <circle cx="21.8" cy="34.8" r="2.1" fill="#fff"/>
    <circle cx="24.9" cy="40.2" r="1.05" fill="#fff" opacity="0.9"/>
  
    <ellipse cx="40.5" cy="37.5" rx="5.2" ry="6.4" fill="#4FA6DE"/>
    <ellipse cx="40.5" cy="38.2" rx="2.2" ry="3.4" fill="#1E5E86"/>
    <circle cx="38.8" cy="34.8" r="2.1" fill="#fff"/>
    <circle cx="41.9" cy="40.2" r="1.05" fill="#fff" opacity="0.9"/>
  <!-- nose + mouth -->
  <path d="M29.4 41.5 L34.6 41.5 L32 44.4 Z" fill="#E8747E" stroke="#C85A66" stroke-width="0.8" stroke-linejoin="round"/>
  <path d="M32 44.4 Q28.5 48.5 25 46.2" fill="none" stroke="#9C7C55" stroke-width="1.7" stroke-linecap="round"/>
  <path d="M32 44.4 Q35.5 48.5 39 46.2" fill="none" stroke="#9C7C55" stroke-width="1.7" stroke-linecap="round"/>
</svg>